<?xml version="1.0" encoding="UTF-8"?>
<svg version="1.1" xmlns="http://www.w3.org/2000/svg" width="142" height="141">
<path d="M0 0 C-0.04640625 0.92941406 -0.0928125 1.85882813 -0.140625 2.81640625 C-0.66803161 12.76079562 -0.66803161 12.76079562 4 21 C6.53218621 22.19356731 9.07238991 23.12835473 11.72265625 24.02734375 C14.76098874 25.3250192 15.71197935 27.02145224 17 30 C20.13871188 31.56935594 22.53855822 31.35201103 26 31 C28.66666667 28.66666667 28.66666667 28.66666667 31 26 C34.4535114 24.18690652 37.12079516 23.77833115 41 24 C41 23.34 41 22.68 41 22 C41.78375 21.938125 42.5675 21.87625 43.375 21.8125 C44.24125 21.544375 45.1075 21.27625 46 21 C47.32481546 18.60470331 47.32481546 18.60470331 48 16 C48.33 15.34 48.66 14.68 49 14 C49.23029956 11.62876754 49.41119942 9.25258057 49.5625 6.875 C49.68818359 4.95300781 49.68818359 4.95300781 49.81640625 2.9921875 C49.87699219 2.00476563 49.93757813 1.01734375 50 0 C58.24269447 0.94890125 64.80861846 2.83154433 72 7 C72 7.66 72 8.32 72 9 C72.721875 9.061875 73.44375 9.12375 74.1875 9.1875 C78.65810539 10.47900822 80.99411634 13.35400856 83.375 17.25 C84.29682585 21.30603375 84.19277856 25.00156621 83 29 C80.5 31.375 80.5 31.375 78 33 C77.67 33.99 77.34 34.98 77 36 C74.10441559 37.4477922 72.25811062 38 69 38 C69 38.66 69 39.32 69 40 C54.61522667 46.57102559 39.92606579 47.59084683 24.3125 47.3125 C22.62305806 47.30096076 20.9336031 47.29118997 19.24414062 47.28320312 C17.61717378 47.26980271 15.99021854 47.25488635 14.36328125 47.23828125 C13.62467361 47.23089432 12.88606598 47.22350739 12.12507629 47.21589661 C7.6668802 47.13440253 3.401845 46.71721738 -1 46 C-1 45.34 -1 44.68 -1 44 C-2.134375 44.061875 -3.26875 44.12375 -4.4375 44.1875 C-9.35824876 44.20501156 -13.44849406 42.73262455 -18 41 C-19.485 40.505 -19.485 40.505 -21 40 C-21.33 39.34 -21.66 38.68 -22 38 C-22.7425 37.731875 -23.485 37.46375 -24.25 37.1875 C-27.68459639 35.70437883 -29.49538975 33.76149335 -32 31 C-32.763125 30.21625 -33.52625 29.4325 -34.3125 28.625 C-36.62321945 25.03054753 -36.71428061 23.21425561 -36 19 C-32.83082843 13.03177909 -27.84667969 8.32935927 -22 5 C-18.5 4.125 -18.5 4.125 -16 4 C-16 3.34 -16 2.68 -16 2 C-13.70858188 1.66496236 -11.41685737 1.33201958 -9.125 1 C-7.21074219 0.7215625 -7.21074219 0.7215625 -5.2578125 0.4375 C-2 0 -2 0 0 0 Z " fill="#33A6AA" transform="translate(48,88)"/>
<path d="M0 0 C1.26714844 -0.01160156 2.53429688 -0.02320313 3.83984375 -0.03515625 C4.90900024 -0.04494507 4.90900024 -0.04494507 5.99975586 -0.05493164 C11.63424391 0.09980531 14.81940256 3.31070916 18.55078125 7.1796875 C20.31148743 9.39124837 20.91439173 11.17492703 21 14 C21.66 14 22.32 14 23 14 C23.495 16.97 23.495 16.97 24 20 C24.66 20 25.32 20 26 20 C26 21.32 26 22.64 26 24 C26.66 24 27.32 24 28 24 C31.30616698 37.83208001 32.73605778 51.15637707 32.94873047 65.36962891 C33.00087999 68.55372974 33.09480365 71.73493744 33.19140625 74.91796875 C33.23423644 76.95567883 33.2746937 78.99344051 33.3125 81.03125 C33.3424707 81.9759314 33.37244141 82.92061279 33.40332031 83.8939209 C33.45807328 90.36578102 33.45807328 90.36578102 31.10546875 93.62304688 C29 95 29 95 27 95 C27 95.66 27 96.32 27 97 C22.545 97.495 22.545 97.495 18 98 C18 96.68 18 95.36 18 94 C17.38125 93.855625 16.7625 93.71125 16.125 93.5625 C14 93 14 93 12 92 C8.58461856 91.41630557 8.58461856 91.41630557 5 92 C2.50459629 94.86615486 2.50459629 94.86615486 1 98 C-5.75 97.125 -5.75 97.125 -8 96 C-8 95.34 -8 94.68 -8 94 C-8.66 94 -9.32 94 -10 94 C-11.2725615 91.45487699 -11.16808347 89.59258049 -11.1875 86.75 C-11.20167969 85.81671875 -11.21585938 84.8834375 -11.23046875 83.921875 C-10.97261124 80.6527662 -10.0431976 78.11129107 -9 75 C-8.21729456 71.39435453 -7.60439859 67.76429478 -7 64.125 C-6.82557373 63.08520996 -6.65114746 62.04541992 -6.47143555 60.97412109 C-5.06010602 52.17623987 -4.21075275 43.37903463 -3.59570312 34.49267578 C-3.52931641 33.5386084 -3.46292969 32.58454102 -3.39453125 31.6015625 C-3.31489136 30.33820068 -3.31489136 30.33820068 -3.23364258 29.04931641 C-3 27 -3 27 -2 25 C-1.77811206 23.11659623 -1.60810213 21.22694809 -1.46484375 19.3359375 C-1.37783203 18.21445312 -1.29082031 17.09296875 -1.20117188 15.9375 C-1.11416016 14.761875 -1.02714844 13.58625 -0.9375 12.375 C-0.84662109 11.19164062 -0.75574219 10.00828125 -0.66210938 8.7890625 C-0.43767767 5.85963815 -0.21714035 2.92997237 0 0 Z " fill="#34A7AB" transform="translate(61,11)"/>
<path d="M0 0 C0.33 0 0.66 0 1 0 C2.06309567 5.17317421 2.11693938 10.12369336 2.0625 15.375 C2.05798828 16.20644531 2.05347656 17.03789063 2.04882812 17.89453125 C2.03713164 19.92971897 2.01919935 21.96486923 2 24 C3.11375 23.95875 4.2275 23.9175 5.375 23.875 C9 24 9 24 11 26 C9.02 25.67 7.04 25.34 5 25 C5.04640625 25.92941406 5.0928125 26.85882813 5.140625 27.81640625 C5.51822171 40.74909368 5.51822171 40.74909368 1 46 C-1.75 46.9375 -1.75 46.9375 -4 47 C-4 47.66 -4 48.32 -4 49 C-4.60328125 49.08636719 -5.2065625 49.17273438 -5.828125 49.26171875 C-11.23257136 50.1803461 -11.23257136 50.1803461 -15.4375 53.5625 C-15.953125 54.366875 -16.46875 55.17125 -17 56 C-20.13871188 57.56935594 -22.53855822 57.35201103 -26 57 C-28.9375 54.625 -28.9375 54.625 -31 52 C-31 51.34 -31 50.68 -31 50 C-31.70125 49.896875 -32.4025 49.79375 -33.125 49.6875 C-38.21167516 48.47112116 -41.16174554 47.1029664 -44.375 42.875 C-47.23361009 37.27639435 -46.53193944 30.93626534 -45 25 C-46.98 25.33 -48.96 25.66 -51 26 C-49 24 -49 24 -46.375 23.875 C-45.59125 23.91625 -44.8075 23.9575 -44 24 C-43.67 24.99 -43.34 25.98 -43 27 C-42.87625 25.865625 -42.7525 24.73125 -42.625 23.5625 C-42.41875 22.386875 -42.2125 21.21125 -42 20 C-41.34 19.67 -40.68 19.34 -40 19 C-40.14049518 20.47968324 -40.28754826 21.95874516 -40.4375 23.4375 C-40.51871094 24.26121094 -40.59992187 25.08492187 -40.68359375 25.93359375 C-41 28 -41 28 -42 29 C-42.07258946 31.18639453 -42.08373783 33.37500389 -42.0625 35.5625 C-42.05347656 36.76003906 -42.04445313 37.95757812 -42.03515625 39.19140625 C-42.02355469 40.11824219 -42.01195312 41.04507813 -42 42 C-41.34 42 -40.68 42 -40 42 C-40 42.66 -40 43.32 -40 44 C-37.03 44.66 -34.06 45.32 -31 46 C-30.71125 45.21625 -30.4225 44.4325 -30.125 43.625 C-29 41 -29 41 -27 39 C-21.75398486 38.49557547 -18.52648522 39.35035011 -14 42 C-14 43.32 -14 44.64 -14 46 C-9.545 45.505 -9.545 45.505 -5 45 C-5 44.34 -5 43.68 -5 43 C-4.360625 42.71125 -3.72125 42.4225 -3.0625 42.125 C-0.84793921 41.17176549 -0.84793921 41.17176549 0 39 C0.08698228 36.08300726 0.11551923 33.19017452 0.09765625 30.2734375 C0.0962413 29.41062164 0.09482635 28.54780579 0.09336853 27.65884399 C0.08776188 24.8975277 0.07520827 22.13629188 0.0625 19.375 C0.05748586 17.5052095 0.0529228 15.63541774 0.04882812 13.765625 C0.03779029 9.17705223 0.0205212 4.58853977 0 0 Z " fill="#CCF1F2" transform="translate(93,63)"/>
<path d="M0 0 C0.33 0 0.66 0 1 0 C2.06309567 5.17317421 2.11693938 10.12369336 2.0625 15.375 C2.05798828 16.20644531 2.05347656 17.03789063 2.04882812 17.89453125 C2.03713164 19.92971897 2.01919935 21.96486923 2 24 C3.11375 23.95875 4.2275 23.9175 5.375 23.875 C9 24 9 24 11 26 C9.02 25.67 7.04 25.34 5 25 C5.04640625 25.92941406 5.0928125 26.85882813 5.140625 27.81640625 C5.51822171 40.74909368 5.51822171 40.74909368 1 46 C-1.75 46.9375 -1.75 46.9375 -4 47 C-4 47.66 -4 48.32 -4 49 C-5.65 49 -7.3 49 -9 49 C-7.02 48.505 -7.02 48.505 -5 48 C-5 47.34 -5 46.68 -5 46 C-5.99 45.67 -6.98 45.34 -8 45 C-7.01 45 -6.02 45 -5 45 C-5 44.34 -5 43.68 -5 43 C-4.360625 42.71125 -3.72125 42.4225 -3.0625 42.125 C-0.84793921 41.17176549 -0.84793921 41.17176549 0 39 C0.08698228 36.08300726 0.11551923 33.19017452 0.09765625 30.2734375 C0.0962413 29.41062164 0.09482635 28.54780579 0.09336853 27.65884399 C0.08776188 24.8975277 0.07520827 22.13629188 0.0625 19.375 C0.05748586 17.5052095 0.0529228 15.63541774 0.04882812 13.765625 C0.03779029 9.17705223 0.0205212 4.58853977 0 0 Z " fill="#A6DADC" transform="translate(93,63)"/>
<path d="M0 0 C3.375 0.6875 3.375 0.6875 4.375 1.6875 C4.64087831 4.74510057 4.80909881 6.89590805 3.3125 9.625 C0.22287273 11.31931173 -2.29717418 10.42701685 -5.625 9.6875 C-6.625 8.6875 -6.625 8.6875 -6.875 5.25 C-6.7925 4.074375 -6.71 2.89875 -6.625 1.6875 C-3.625 -0.3125 -3.625 -0.3125 0 0 Z " fill="#3EA7AB" transform="translate(71.625,106.3125)"/>
<path d="M0 0 C1.06370005 2.76562013 1.04568629 3.87178363 0.03125 6.71875 C-1.09338863 10.29714564 -1.20128082 13.13723996 -1.125 16.875 C-1.09792969 18.60363281 -1.09792969 18.60363281 -1.0703125 20.3671875 C-1.04710937 21.23601562 -1.02390625 22.10484375 -1 23 C-0.34 23 0.32 23 1 23 C1 23.66 1 24.32 1 25 C5.455 25.99 5.455 25.99 10 27 C10 27.33 10 27.66 10 28 C6.2983055 28.7984047 3.83156166 29.32128519 0.25 27.9375 C-3.10745587 25.04635745 -4.78079952 22.25975764 -5.21484375 17.78515625 C-5.2753342 13.74573818 -5.01387626 9.92877052 -4 6 C-5.98 6.33 -7.96 6.66 -10 7 C-8 5 -8 5 -5.375 4.875 C-4.59125 4.91625 -3.8075 4.9575 -3 5 C-2.67 5.99 -2.34 6.98 -2 8 C-1.855625 6.865625 -1.71125 5.73125 -1.5625 4.5625 C-1 1 -1 1 0 0 Z " fill="#B4E4E6" transform="translate(52,82)"/>
<path d="M0 0 C3.79341516 0.52322968 6.33815607 1.5759938 9.625 3.5 C9.625 4.82 9.625 6.14 9.625 7.5 C11.275 7.5 12.925 7.5 14.625 7.5 C14.625 7.83 14.625 8.16 14.625 8.5 C12.645 8.5 10.665 8.5 8.625 8.5 C7.965 9.82 7.305 11.14 6.625 12.5 C6.295 10.52 5.965 8.54 5.625 6.5 C0.57490405 5.56213918 0.57490405 5.56213918 -4.375 6.5 C-4.375 8.48 -4.375 10.46 -4.375 12.5 C-4.705 12.5 -5.035 12.5 -5.375 12.5 C-5.375 10.52 -5.375 8.54 -5.375 6.5 C-6.035 6.17 -6.695 5.84 -7.375 5.5 C-5.1561877 1.94990031 -4.23806867 0.62786203 0 0 Z " fill="#B8E9EA" transform="translate(69.375,101.5)"/>
<path d="M0 0 C2.97 0.33 5.94 0.66 9 1 C9 1.66 9 2.32 9 3 C23.85 3.33 38.7 3.66 54 4 C54 4.33 54 4.66 54 5 C48.39903588 5.07495628 42.79837289 5.1289776 37.19702148 5.16479492 C35.29723007 5.17974885 33.39747236 5.20011943 31.49780273 5.22631836 C20.56043881 5.37322528 10.54220922 5.26994041 0 2 C0 1.34 0 0.68 0 0 Z " fill="#BFE9EA" transform="translate(38,131)"/>
<path d="M0 0 C0.33 0 0.66 0 1 0 C1.02690844 2.62506802 1.04679404 5.24986173 1.0625 7.875 C1.07087891 8.62136719 1.07925781 9.36773437 1.08789062 10.13671875 C1.11328125 15.7734375 1.11328125 15.7734375 0 18 C-0.22010789 19.66428333 -0.39096902 21.33524067 -0.53515625 23.0078125 C-0.62216797 23.99394531 -0.70917969 24.98007812 -0.79882812 25.99609375 C-0.88583984 27.02863281 -0.97285156 28.06117187 -1.0625 29.125 C-1.15337891 30.16527344 -1.24425781 31.20554687 -1.33789062 32.27734375 C-1.56222369 34.85127048 -1.78276775 37.42546585 -2 40 C-2.66 40 -3.32 40 -4 40 C-3.73893001 36.04860878 -3.47228307 32.09763772 -3.20043945 28.14697266 C-3.1087312 26.80267572 -3.01855335 25.45827347 -2.92993164 24.11376953 C-2.80235801 22.18234758 -2.66884146 20.25132106 -2.53515625 18.3203125 C-2.456604 17.15773926 -2.37805176 15.99516602 -2.29711914 14.79736328 C-2 12 -2 12 -1 10 C-0.77377919 8.29636178 -0.59111527 6.58671299 -0.4375 4.875 C-0.31181641 3.50988281 -0.31181641 3.50988281 -0.18359375 2.1171875 C-0.12300781 1.41851563 -0.06242187 0.71984375 0 0 Z " fill="#96D2D4" transform="translate(60,26)"/>
<path d="M0 0 C-9.55066361 4.86180663 -9.55066361 4.86180663 -13.8125 6.625 C-17.01568993 7.91301537 -17.01568993 7.91301537 -19.8125 9.75 C-20.534375 10.1625 -21.25625 10.575 -22 11 C-22.66 10.67 -23.32 10.34 -24 10 C-15.27044025 2 -15.27044025 2 -9 2 C-9 1.34 -9 0.68 -9 0 C-2.25 -1.125 -2.25 -1.125 0 0 Z " fill="#72BDC1" transform="translate(41,90)"/>
<path d="M0 0 C2 3 2 3 1.625 5.1875 C1.41875 5.785625 1.2125 6.38375 1 7 C-0.65 7.33 -2.3 7.66 -4 8 C-4 8.66 -4 9.32 -4 10 C-5.65 10 -7.3 10 -9 10 C-7.68 9.67 -6.36 9.34 -5 9 C-5 8.34 -5 7.68 -5 7 C-5.99 6.67 -6.98 6.34 -8 6 C-7.01 6 -6.02 6 -5 6 C-5 5.34 -5 4.68 -5 4 C-4.360625 3.71125 -3.72125 3.4225 -3.0625 3.125 C-0.84793921 2.17176549 -0.84793921 2.17176549 0 0 Z " fill="#A0D9DB" transform="translate(93,102)"/>
<path d="M0 0 C2.0625 0.4375 2.0625 0.4375 4 1 C4 2.32 4 3.64 4 5 C5.65 5 7.3 5 9 5 C9 5.33 9 5.66 9 6 C7.02 6 5.04 6 3 6 C2.34 7.32 1.68 8.64 1 10 C0.67 8.02 0.34 6.04 0 4 C-4.97906259 3.24572703 -4.97906259 3.24572703 -10 3 C-8 1 -8 1 -4.4375 0.9375 C-3.303125 0.958125 -2.16875 0.97875 -1 1 C-0.67 0.67 -0.34 0.34 0 0 Z " fill="#99D2D3" transform="translate(75,104)"/>
<path d="M0 0 C0.33 0.66 0.66 1.32 1 2 C-1.90600261 3.25664978 -3.79604584 4 -7 4 C-7 4.66 -7 5.32 -7 6 C-13.75 9 -13.75 9 -16 9 C-16 8.34 -16 7.68 -16 7 C-14.68 7 -13.36 7 -12 7 C-12 6.34 -12 5.68 -12 5 C-10.68 5 -9.36 5 -8 5 C-8 4.34 -8 3.68 -8 3 C-5.36 2.01 -2.72 1.02 0 0 Z " fill="#86C9CB" transform="translate(124,122)"/>
<path d="M0 0 C-1.59766103 0.86627399 -3.20339944 1.71766465 -4.8125 2.5625 C-5.70582031 3.03816406 -6.59914063 3.51382813 -7.51953125 4.00390625 C-10 5 -10 5 -13 4 C-10.54372898 0.95422393 -9.2675888 0.0599768 -5.375 -0.8125 C-2 -1 -2 -1 0 0 Z " fill="#59B2B5" transform="translate(41,90)"/>
<path d="M0 0 C0.33 0 0.66 0 1 0 C1.66 3.96 2.32 7.92 3 12 C-1 8 -1 8 -1.3125 4.3125 C-1 1 -1 1 0 0 Z " fill="#60B4B7" transform="translate(13,106)"/>
<path d="M0 0 C0 0.66 0 1.32 0 2 C-1.32 2 -2.64 2 -4 2 C-4 2.66 -4 3.32 -4 4 C-5.98 4.66 -7.96 5.32 -10 6 C-9.25 3.5625 -9.25 3.5625 -8 1 C-5.20408963 -0.21156116 -3.12576931 0 0 0 Z " fill="#BBE8E9" transform="translate(88,109)"/>
<path d="M0 0 C0.66 0.33 1.32 0.66 2 1 C1.38511719 1.59748047 1.38511719 1.59748047 0.7578125 2.20703125 C0.21898437 2.73683594 -0.31984375 3.26664062 -0.875 3.8125 C-1.40867187 4.33457031 -1.94234375 4.85664062 -2.4921875 5.39453125 C-4.20776561 7.13259904 -4.20776561 7.13259904 -6 10 C-5.8125 6.6875 -5.8125 6.6875 -5 3 C-2.5625 1 -2.5625 1 0 0 Z " fill="#42A7AC" transform="translate(20,99)"/>
<path d="M0 0 C3.19892281 0 5.25408155 0.20108841 8.25 1 C9.4875 1.33 10.725 1.66 12 2 C12 2.33 12 2.66 12 3 C5.74557657 4.34899329 5.74557657 4.34899329 2.0625 2.625 C1.381875 2.08875 0.70125 1.5525 0 1 C0 0.67 0 0.34 0 0 Z " fill="#AADFE1" transform="translate(50,107)"/>
<path d="M0 0 C-5.625 4 -5.625 4 -9 4 C-6.56225426 0.2214941 -6.56225426 0.2214941 -3.9375 -0.8125 C-2 -1 -2 -1 0 0 Z " fill="#48A9AD" transform="translate(86,113)"/>
</svg>
